<?xml version="1.0" encoding="iso-8859-1"?>

<svg version="1.1" id="Capa_1" xmlns="http://www.w3.org/2000/svg" xmlns:xlink="http://www.w3.org/1999/xlink" x="0px"
	 y="0px"
	 viewBox="0 0 262 262" style="enable-background:new 0 0 262 262;" xml:space="preserve">

		
		<path style="fill:#000002;" d="M215.4,1.5v15.2H235l-70.2,70.2l-58.2-58.2L1.1,134.4l10.8,10.8l94.8-94.8l58.2,58.2l81-81v19.7H261V1.5L215.4,1.5z"/>
	<path style="fill:#000002;" d="M245.1,105.3h-45.7v141h-15.2V138.5h-45.7v107.8h-15.2v-137H77.5v137h-15v-76H16.9v76H1v15.2h260v-15.2h-15.9L245.1,105.3z
		 M47.3,185.5v15.2H32.1v-15.2H47.3z M32.1,246.3V216h15.2v30.3H32.1z M108,124.5v15.2H92.8v-15.2H108z M92.8,246.3V155H108v91.3
		H92.8z M169,153.7v15.2h-15.2v-15.2H169z M153.7,246.3v-62.1H169v62.1H153.7z M229.9,120.5v15.2h-15.2v-15.2H229.9z M214.7,246.3
		V151h15.2v95.3H214.7z"/>

</svg>
