<?xml version="1.0" encoding="iso-8859-1"?>
<!-- Generator: Adobe Illustrator 17.1.0, SVG Export Plug-In . SVG Version: 6.00 Build 0)  -->
<!DOCTYPE svg PUBLIC "-//W3C//DTD SVG 1.1//EN" "http://www.w3.org/Graphics/SVG/1.1/DTD/svg11.dtd">
<svg version="1.1" id="Capa_1" xmlns="http://www.w3.org/2000/svg" xmlns:xlink="http://www.w3.org/1999/xlink" x="0px" y="0px"
	 viewBox="0 0 262.048 262.048" style="enable-background:new 0 0 262.048 262.048;" xml:space="preserve">
<path style="fill:#000002;" d="M80.1,261.5C36.5,261.5,1,236,1,204.6c0-14.9,8.2-29.2,22.6-39.8V42.1C23.6,19.7,49,1.5,80.1,1.5s56.5,18.2,56.5,40.6v122.7
	c14.4,10.6,22.6,24.9,22.6,39.8C159.3,236,123.8,261.5,80.1,261.5z M80.1,17.8c-18.7,0-33.9,10.9-33.9,24.4v126.2
	c0,2.3-1.4,4.5-3.8,6.1c-12,7.7-18.8,18.7-18.8,30.3c0,22.4,25.4,40.6,56.5,40.6s56.5-18.2,56.5-40.6c0-11.5-6.9-22.6-18.8-30.3
	c-2.4-1.5-3.8-3.7-3.8-6.1V42.1C114,28.7,98.8,17.8,80.1,17.8L80.1,17.8z"/>
<path style="fill:#000002;" d="M91.4,181.6V46.2c0-4.5-5.1-8.1-11.3-8.1c-6.2,0-11.3,3.6-11.3,8.1v135.5c-13.2,3.4-22.6,12.4-22.6,23
	c0,13.4,15.2,24.4,33.9,24.4s33.9-10.9,33.9-24.4C114,194,104.6,185,91.4,181.6z M80.1,212.8c-6.2,0-11.3-3.6-11.3-8.1
	s5.1-8.1,11.3-8.1c6.2,0,11.3,3.6,11.3,8.1S86.4,212.8,80.1,212.8z"/>
<path style="fill:#000002;" d="M249.7,66.5c-6.2,0-11.3-3.6-11.3-8.1c0-22.4-25.4-40.6-56.5-40.6c-6.2,0-11.3-3.6-11.3-8.1s5.1-8.1,11.3-8.1
	C225.5,1.5,261,27,261,58.4C261,62.9,255.9,66.5,249.7,66.5z"/>
<path style="fill:#000002;" d="M210.1,66.5c-6.2,0-11.3-3.6-11.3-8.1c0-6.7-7.6-12.2-17-12.2c-6.2,0-11.3-3.6-11.3-8.1s5.1-8.1,11.3-8.1
	c21.8,0,39.6,12.8,39.6,28.4C221.4,62.9,216.4,66.5,210.1,66.5z"/>
<path style="fill:#000002;" d="M170.6,78.3c-14.7,0.2-14.7-20.1,0-19.9C185.3,58.2,185.3,78.5,170.6,78.3z"/>
</svg>
