<?xml version="1.0" encoding="utf-8"?>
<!-- Generator: Adobe Illustrator 24.1.2, SVG Export Plug-In . SVG Version: 6.00 Build 0)  -->
<svg version="1.1" id="Capa_1" xmlns="http://www.w3.org/2000/svg" xmlns:xlink="http://www.w3.org/1999/xlink" x="0px" y="0px"
	 viewBox="0 0 262 262" style="enable-background:new 0 0 262 262;" xml:space="preserve">
<g>
	<path style="fill:#000002;" d="M253.4,123.9h-11.8l5.8-10.1c2.1-3.6,0.9-8.3-2.8-10.4c-3.6-2.1-8.3-0.9-10.4,2.8L224,123.9h-74.6l52.7-52.7l19.7,5.3
		c0.7,0.2,1.3,0.3,2,0.3c3.4,0,6.4-2.2,7.4-5.6c1.1-4.1-1.3-8.2-5.4-9.3l-11.2-3l7.7-7.7c3-3,3-7.8,0-10.8c-3-3-7.8-3-10.8,0
		l-7.7,7.7l-3-11.2c-1.1-4.1-5.3-6.5-9.3-5.4c-4.1,1.1-6.5,5.3-5.4,9.3l5.3,19.7l-52.7,52.7V38.5l17.7-10.2
		c3.6-2.1,4.9-6.8,2.8-10.4c-2.1-3.6-6.8-4.9-10.4-2.8L138.6,21V9.1c0-4.2-3.4-7.6-7.6-7.6c-4.2,0-7.6,3.4-7.6,7.6v244.8
		c0,4.2,3.4,7.6,7.6,7.6c4.2,0,7.6-3.4,7.6-7.6V242l10.1,5.8c1.2,0.7,2.5,1,3.8,1c2.6,0,5.2-1.4,6.6-3.8c2.1-3.6,0.9-8.3-2.8-10.4
		l-17.7-10.2v-74.6l52.7,52.7l-5.3,19.7c-1.1,4.1,1.3,8.2,5.4,9.3c0.7,0.2,1.3,0.3,2,0.3c3.4,0,6.4-2.2,7.4-5.6l3-11.2l7.7,7.7
		c1.5,1.5,3.4,2.2,5.4,2.2s3.9-0.7,5.4-2.2c3-3,3-7.8,0-10.8l-7.7-7.7l11.2-3c4.1-1.1,6.5-5.3,5.4-9.3c-1.1-4.1-5.3-6.5-9.3-5.4
		l-19.7,5.3l-52.7-52.7H224l10.2,17.7c1.4,2.4,4,3.8,6.6,3.8c1.3,0,2.6-0.3,3.8-1c3.6-2.1,4.9-6.8,2.8-10.4l-5.8-10.1h11.8
		c4.2,0,7.6-3.4,7.6-7.6C261,127.3,257.6,123.9,253.4,123.9z"/>
	<path style="fill:#000002;" d="M40.6,131.5c0-4.2-3.4-7.6-7.6-7.6H8.6c-4.2,0-7.6,3.4-7.6,7.6c0,4.2,3.4,7.6,7.6,7.6H33C37.2,139.1,40.6,135.7,40.6,131.5
		z"/>
	<path style="fill:#000002;" d="M56.3,67.6c1.5,1.5,3.4,2.2,5.4,2.2s3.9-0.7,5.4-2.2c3-3,3-7.8,0-10.8L49.8,39.6c-3-3-7.8-3-10.8,0c-3,3-3,7.8,0,10.8
		L56.3,67.6z"/>
	<path style="fill:#000002;" d="M56.3,195.4l-17.3,17.3c-3,3-3,7.8,0,10.8c1.5,1.5,3.4,2.2,5.4,2.2s3.9-0.7,5.4-2.2l17.3-17.3c3-3,3-7.8,0-10.8
		C64.1,192.4,59.3,192.4,56.3,195.4L56.3,195.4z"/>
	<path style="fill:#000002;" d="M87.2,43.5c1.2,3,4.1,4.8,7.1,4.8c1,0,1.9-0.2,2.9-0.6c3.9-1.6,5.8-6,4.2-9.9l-9.1-22.6c-1.6-3.9-6-5.8-9.9-4.2
		c-3.9,1.6-5.8,6-4.2,9.9L87.2,43.5z"/>
	<path style="fill:#000002;" d="M47.2,165.4c-1.6-3.9-6-5.8-9.9-4.2l-22.6,9.1c-3.9,1.6-5.8,6-4.2,9.9c1.2,3,4.1,4.8,7.1,4.8c1,0,1.9-0.2,2.9-0.6l22.6-9.1
		C46.9,173.7,48.8,169.3,47.2,165.4z"/>
	<path style="fill:#000002;" d="M96.7,215.1c-3.9-1.6-8.3,0.3-9.9,4.2l-9.3,22.6c-1.6,3.9,0.3,8.3,4.2,9.9c0.9,0.4,1.9,0.6,2.9,0.6c3,0,5.8-1.8,7.1-4.7
		l9.3-22.6C102.5,221.2,100.6,216.7,96.7,215.1L96.7,215.1z"/>
	<path style="fill:#000002;" d="M14.9,92.1l22.6,9.3c0.9,0.4,1.9,0.6,2.9,0.6c3,0,5.8-1.8,7.1-4.7c1.6-3.9-0.3-8.3-4.2-9.9L20.6,78
		c-3.9-1.6-8.3,0.3-9.9,4.2C9.1,86.1,11,90.5,14.9,92.1z"/>
	<path style="fill:#000002;" d="M54.8,131.5c0,34,22.4,62.9,53.2,72.6V58.9C77.2,68.6,54.8,97.5,54.8,131.5z"/>
</g>
</svg>
