<?xml version="1.0" encoding="utf-8"?>
<!-- Generator: Adobe Illustrator 24.1.2, SVG Export Plug-In . SVG Version: 6.00 Build 0)  -->
<svg version="1.1" id="Capa_1" xmlns="http://www.w3.org/2000/svg" xmlns:xlink="http://www.w3.org/1999/xlink" x="0px" y="0px"
	 viewBox="0 0 262 262" style="enable-background:new 0 0 262 262;" xml:space="preserve">
<g>
	<g>
		<g>
			<rect style="fill:#000002;" x="1" y="1.5" width="20.6" height="260"/>
		</g>
	</g>
	<g>
		<g>
			<path style="fill:#000002;" d="M252.1,45.4L59.4,20.4c-3-0.4-5.9,0.4-8.2,2.3c-2.2,1.8-3.5,4.5-3.5,7.2v109.9c0,2.8,1.3,5.4,3.5,7.2
				c1.9,1.5,4.3,2.4,6.8,2.4c0.5,0,0.9,0,1.4-0.1l192.8-24.9c5.1-0.7,8.9-4.7,8.9-9.5v-60C261,50.1,257.2,46,252.1,45.4z
				 M240.4,106.5L68.2,128.8V40.9l172.2,22.3V106.5z"/>
		</g>
	</g>
	<g>
		<g>
			<rect style="fill:#000002;" x="121.7" y="39.5" width="20.6" height="90.7"/>
		</g>
	</g>
	<g>
		<g>
			<polygon style="fill:#000002;" points="181.4,122.5 182.1,47.1 202.7,47.3 202,122.6 			"/>
		</g>
	</g>
</g>
</svg>
